<svg width="249" height="300" viewBox="0 0 249 300" fill="none" xmlns="http://www.w3.org/2000/svg">
<path fill-rule="evenodd" clip-rule="evenodd" d="M301.079 18.3963C340.206 34.2234 393.657 22.5402 419.272 56.0904C444.748 89.4575 446.554 143.986 424.011 179.411C400.772 215.931 323.723 190.959 307.827 231.222C285.714 287.234 370.346 357.815 334.48 406.188C307.073 443.153 247.355 386.291 203.773 371.562C168.939 359.789 135.096 349.116 104.641 328.511C71.0753 305.802 34.9246 283.282 18.514 246.221C1.25941 207.254 -8.59921 157.947 12.7901 121.079C34.1829 84.2054 91.8571 91.5989 124.277 63.9212C155.671 37.1204 155.152 -24.2868 195.12 -34.5783C234.155 -44.6296 263.715 3.28309 301.079 18.3963Z" fill="url(#paint0_linear_689_4)" fill-opacity="0.8"/>
<defs>
<linearGradient id="paint0_linear_689_4" x1="293.661" y1="-6.80703" x2="137.006" y2="347.215" gradientUnits="userSpaceOnUse">
<stop stop-color="#55FF99"/>
<stop offset="1" stop-color="#161B22"/>
</linearGradient>
</defs>
</svg>
